<svg width="512" height="512" viewBox="0 0 512 512" fill="none" xmlns="http://www.w3.org/2000/svg">
<g clip-path="url(#clip0_52_17)">
<circle cx="256" cy="256" r="256" fill="#14151A"/>
<path d="M77.9856 383C69.9325 383 62.7422 380.894 56.4148 376.682C50.0874 372.638 45.4137 366.319 42.3938 357.726C39.3739 349.133 38.6549 338.181 40.2367 324.871L44.9823 282.664C46.2765 273.06 43.3285 268.258 36.1383 268.258H26V244.248H36.1383C43.3285 244.248 46.2765 239.362 44.9823 229.589L40.2367 187.129C38.6549 173.819 39.3739 162.867 42.3938 154.274C45.4137 145.681 50.0874 139.362 56.4148 135.318C62.7422 131.106 69.9325 129 77.9856 129C85.3196 129 90.9999 130.348 95.0265 133.044C99.1968 135.74 102.504 139.446 104.949 144.164L92.438 160.339C90.8561 157.643 88.9147 155.622 86.6139 154.274C84.313 152.757 81.6526 151.999 78.6327 151.999C73.3119 151.999 69.4292 153.768 66.9845 157.306C64.6836 160.676 63.3893 165.31 63.1017 171.207C62.9579 176.936 63.2455 183.338 63.9646 190.415L66.9845 220.491C68.1349 230.768 67.6316 238.856 65.4745 244.753C63.3174 250.65 59.219 254.441 53.1792 256.126C59.5066 258.317 63.6769 262.361 65.6902 268.258C67.8473 274.155 68.2068 282.579 66.7688 293.531L63.9646 321.585C63.2455 328.493 63.0298 334.896 63.3174 340.793C63.605 346.69 64.8993 351.324 67.2002 354.694C69.5011 358.232 73.3119 360.001 78.6327 360.001C81.7964 360.001 84.4568 359.243 86.6139 357.726C88.7709 356.378 90.6404 354.357 92.2223 351.661L104.949 367.836C102.504 372.385 99.1968 376.008 95.0265 378.703C90.9999 381.568 85.3196 383 77.9856 383Z" fill="#548252"/>
<path d="M119.973 340.915L151.897 164H198.922C212.439 164 223.512 167.707 232.141 175.12C240.913 182.366 246.809 192.98 249.829 206.965C252.992 220.781 252.777 237.462 249.182 257.007C245.73 276.552 240.05 292.559 232.141 305.027C224.231 317.327 214.74 326.425 203.667 332.322C192.594 338.051 180.299 340.915 166.781 340.915H119.973ZM151.682 315.389H169.586C182.672 315.389 193.889 310.334 203.236 300.225C212.727 289.947 219.342 273.856 223.081 251.952C225.957 237.294 226.46 225.331 224.591 216.064C222.865 206.797 219.27 200.057 213.806 195.845C208.341 191.464 201.223 189.274 192.451 189.274H174.331L151.682 315.389Z" fill="#E0E0E0"/>
<path d="M332.049 340.915L291.496 245.887L363.326 164H396.977L316.734 252.71L317.381 237.041L363.758 340.915H332.049ZM253.315 340.915L285.24 164H312.204L280.063 340.915H253.315Z" fill="#E0E0E0"/>
<path d="M433.799 383C426.608 383 420.928 381.568 416.758 378.703C412.587 376.008 409.28 372.385 406.835 367.836L419.562 351.661C421.144 354.357 423.013 356.378 425.17 357.726C427.328 359.243 430.06 360.001 433.367 360.001C438.688 360.001 442.427 358.232 444.584 354.694C446.885 351.324 448.179 346.69 448.467 340.793C448.898 334.896 448.683 328.493 447.82 321.585L445.016 293.531C443.721 282.579 444.081 274.155 446.094 268.258C448.107 262.361 452.278 258.317 458.605 256.126C452.709 254.441 448.683 250.65 446.526 244.753C444.368 238.856 443.793 230.768 444.8 220.491L447.82 190.415C448.683 183.338 448.97 176.936 448.683 171.207C448.395 165.31 447.101 160.676 444.8 157.306C442.643 153.768 438.832 151.999 433.367 151.999C430.204 151.999 427.471 152.757 425.17 154.274C423.013 155.622 421.072 157.643 419.346 160.339L406.835 144.164C409.28 139.446 412.587 135.74 416.758 133.044C420.928 130.348 426.608 129 433.799 129C441.996 129 449.186 131.106 455.37 135.318C461.697 139.362 466.371 145.681 469.391 154.274C472.554 162.867 473.273 173.819 471.548 187.129L466.802 229.589C465.508 239.362 468.456 244.248 475.646 244.248H486V268.258H475.646C468.456 268.258 465.508 273.06 466.802 282.664L471.548 324.871C473.273 338.181 472.554 349.133 469.391 357.726C466.371 366.319 461.697 372.638 455.37 376.682C449.186 380.894 441.996 383 433.799 383Z" fill="#548252"/>
</g>
<defs>
<clipPath id="clip0_52_17">
<rect width="512" height="512" fill="white"/>
</clipPath>
</defs>
</svg>
