<?xml version="1.0" standalone="no"?>
<!DOCTYPE svg PUBLIC "-//W3C//DTD SVG 20010904//EN"
 "http://www.w3.org/TR/2001/REC-SVG-20010904/DTD/svg10.dtd">
<svg version="1.0" xmlns="http://www.w3.org/2000/svg"
 width="16.000000pt" height="16.000000pt" viewBox="0 0 16.000000 16.000000"
 preserveAspectRatio="xMidYMid meet">
<metadata>
Created by potrace 1.16, written by Peter Selinger 2001-2019
</metadata>
<g transform="translate(0.000000,16.000000) scale(0.100000,-0.100000)"
fill="#000000" stroke="none">
<path d="M0 80 l0 -80 80 0 80 0 0 80 0 80 -80 0 -80 0 0 -80z m65 0 c0 -29
-4 -36 -22 -38 -21 -3 -23 1 -23 38 0 37 2 41 23 38 18 -2 22 -9 22 -38z m44
24 c7 9 18 16 24 16 5 0 3 -8 -6 -18 -15 -16 -15 -20 -1 -40 9 -13 11 -22 4
-22 -6 0 -13 7 -17 16 -6 15 -8 15 -20 -2 -12 -16 -13 -13 -12 27 0 29 3 38 8
26 6 -17 8 -17 20 -3z"/>
<path d="M30 80 c0 -21 4 -30 13 -27 16 5 16 49 0 55 -9 2 -13 -7 -13 -28z"/>
</g>
</svg>
